<svg xmlns="http://www.w3.org/2000/svg" width="1200" height="300" viewBox="0 0 1200 300" role="img" aria-label="anima — your AI keeps a diary you can read">
  <!-- Wordmark: 'anima' set in Kalam (SIL OFL 1.1, Indian Type Foundry), outlined to vector paths. Tagline uses a system-safe serif stack. -->
  <defs>
    <linearGradient id="desk" x1="0" y1="0" x2="0.35" y2="1">
      <stop offset="0" stop-color="#100D08"/><stop offset="1" stop-color="#17110B"/>
    </linearGradient>
    <radialGradient id="lamp" cx="0.13" cy="0.08" r="0.62">
      <stop offset="0" stop-color="#E9B75A" stop-opacity="0.13"/><stop offset="1" stop-color="#E9B75A" stop-opacity="0"/>
    </radialGradient>
    <filter id="grain" x="0" y="0" width="100%" height="100%">
      <feTurbulence type="fractalNoise" baseFrequency="0.9" numOctaves="2" seed="4" result="n"/>
      <feColorMatrix in="n" type="saturate" values="0"/>
      <feComponentTransfer><feFuncA type="linear" slope="0.06"/></feComponentTransfer>
    </filter>
  </defs>
  <rect width="1200" height="300" fill="url(#desk)"/>
  <rect width="1200" height="300" fill="url(#lamp)"/>
  <g stroke="#3C3527" stroke-width="1" opacity="0.6">
    <line x1="40" y1="62" x2="1160" y2="62"/>
    <line x1="40" y1="106" x2="1160" y2="106"/>
    <line x1="40" y1="150" x2="1160" y2="150"/>
    <line x1="40" y1="194" x2="1160" y2="194"/>
    <line x1="40" y1="238" x2="1160" y2="238"/>
    <line x1="40" y1="282" x2="1160" y2="282"/>
  </g>
  <line x1="150" y1="26" x2="150" y2="290" stroke="#B8492F" stroke-width="2" opacity="0.85"/>
  <rect width="1200" height="300" filter="url(#grain)"/>
  <!-- wordmark: "anima" outlined to vector paths (no font dependency) -->
  <g transform="translate(184,150)" fill="#ECE0C8"><path d="M41.4 -27.2Q43.1 -25.8 43.1 -24.6Q43.1 -23.4 42 -19.6Q40.8 -15.8 40.5 -13.8Q40.1 -11.7 39.9 -10.5Q39.7 -9.3 39.6 -8.6Q39.5 -7.9 39.2 -6.9Q39 -5.9 38.9 -5.3Q38.7 -4.7 38.5 -3.9Q38.3 -3.1 38 -2.7Q37.7 -2.3 37.4 -1.8Q36.8 -1.1 35.5 -1.1Q34.2 -1.1 32.3 -3.7Q30.5 -6.3 29.5 -9.9Q20.9 -1.1 15 -1.1Q11 -1.1 6.4 -5.5Q1.8 -9.8 1.8 -14.2Q1.8 -18.6 5.8 -26.7Q9.8 -34.8 16.6 -41.7Q23.5 -48.6 30.2 -48.6Q34 -48.6 39.1 -44.1Q44.2 -39.6 44.2 -35.8Q44.2 -32.1 41.4 -27.2ZM14.6 -12.7Q18.3 -12.7 24.4 -17.7Q30.5 -22.7 32 -30.4Q32.1 -31.5 33.6 -31.6Q33.3 -36.9 31.8 -36.9Q28.2 -36.9 23.6 -32.1Q19 -27.3 16.1 -21.9Q13.2 -16.5 13.2 -13.9Q13.2 -13.2 13.5 -12.9Q13.7 -12.7 14.6 -12.7Z M83.1 -48.6Q87.9 -48.6 91.5 -44.3Q95.1 -40 95.1 -35.1Q95.1 -27.3 92.6 -18.8Q90.1 -10.3 87.1 -5.7Q84.1 -1.1 81 -1.1Q77.9 -1.1 77.9 -5.4Q77.9 -8.7 81 -18.8Q83.3 -27 83.3 -30.6Q83.3 -34.2 82.3 -34.2Q81.1 -34.2 80 -33Q78.8 -31.8 78.1 -30.9Q77.4 -30 76.4 -28.6Q75.4 -27.1 74.8 -26Q74.1 -24.8 73 -23Q71.9 -21.3 71.3 -20.1Q70.7 -19 69.6 -17.1Q61.1 -1.1 56.2 -1.1Q54.3 -1.1 51.3 -4.5Q48.4 -7.8 48.4 -9.4Q48.4 -10.4 49.7 -13.8Q51.1 -17.1 51.7 -18.9Q52.3 -20.7 52.7 -22.7Q53.1 -24.7 53.4 -27.1Q53.6 -29.4 53.8 -30.7Q53.9 -32 54.1 -34.8Q54.9 -46.7 55.5 -48Q56.1 -49.3 56.9 -49.3Q60.4 -49.3 63.6 -46.4Q66.8 -43.5 66.8 -41.1Q66.8 -35.4 63.8 -24.7Q69.8 -35.2 74.8 -41.9Q79.7 -48.6 83.1 -48.6Z M118.9 -50.7Q116.2 -50.7 112.7 -54.2Q109.2 -57.7 109.2 -60.1Q109.2 -62.5 111.4 -65Q113.5 -67.5 115.6 -67.5Q117.7 -67.5 120.5 -62.6Q123.4 -57.6 123.4 -55.3Q123.4 -53.1 121.9 -51.9Q120.4 -50.7 118.9 -50.7ZM110.6 -48.6Q113.8 -48.6 116.3 -44.9Q118.9 -41.2 118.9 -37.8Q118.9 -36.1 115.7 -25.3Q112.5 -14.4 109.4 -4.8Q108.3 -1.2 104.9 -1.2Q102.9 -1.2 101.3 -2.7Q99.8 -4.2 99.8 -6.7Q99.8 -9.1 102.2 -18.8Q104.5 -28.5 105.8 -35.4Q107 -42.2 108.1 -45.4Q109.1 -48.6 110.6 -48.6Z M186 -48.6Q189.6 -48.6 192 -43.8Q194.4 -39 194.4 -35.1Q194.4 -31.1 192.9 -23.3Q191.4 -15.5 188.1 -8.3Q184.8 -1.1 181.1 -1.1Q178 -1.1 178 -5.2Q178 -9.4 180.4 -18.8Q182.8 -28.2 182.8 -31.1Q182.8 -34 181.9 -34Q180 -34 177.3 -29.8Q174.6 -25.6 170.9 -18.5Q167.2 -11.4 166.2 -9.4Q165.3 -7.4 164.7 -6.2Q164.1 -5 163.4 -3.7Q160.4 1.2 155.6 -3.7Q153.1 -6.2 153.1 -8.2Q153.1 -8.6 154.6 -15.2Q156.1 -21.9 156.1 -30.5Q156.1 -34 155.3 -34Q154.2 -34 152.7 -31.8Q151.2 -29.6 148.2 -23.8Q145.2 -18 143 -14.3Q135.2 -1.1 131.2 -1.1Q129.2 -1.1 126.2 -4.5Q123.2 -7.9 123.2 -9.7Q123.2 -11.5 125.3 -18.4Q127.3 -25.2 127.9 -32.9Q128.5 -40.7 129 -45Q129.5 -49.3 131.2 -49.3Q134.7 -49.3 138 -46.4Q141.2 -43.5 141.2 -41.1Q141.2 -35.7 137.3 -22.2Q143.7 -37.5 148.1 -43Q152.8 -48.6 157.1 -48.6Q159.5 -48.6 163.1 -44.2Q166.6 -39.7 166.6 -35.9Q166.6 -32.1 166.5 -29.3Q169.4 -36.4 175.2 -42.5Q181 -48.6 186 -48.6Z M238.6 -27.2Q240.2 -25.8 240.2 -24.6Q240.2 -23.4 239.1 -19.6Q238 -15.8 237.6 -13.8Q237.3 -11.7 237 -10.5Q236.8 -9.3 236.7 -8.6Q236.6 -7.9 236.4 -6.9Q236.2 -5.9 236 -5.3Q235.9 -4.7 235.7 -3.9Q235.4 -3.1 235.2 -2.7Q234.9 -2.3 234.5 -1.8Q234 -1.1 232.7 -1.1Q231.4 -1.1 229.5 -3.7Q227.6 -6.3 226.7 -9.9Q218 -1.1 212.2 -1.1Q208.2 -1.1 203.6 -5.5Q199 -9.8 199 -14.2Q199 -18.6 203 -26.7Q206.9 -34.8 213.8 -41.7Q220.6 -48.6 227.3 -48.6Q231.2 -48.6 236.3 -44.1Q241.3 -39.6 241.3 -35.8Q241.3 -32.1 238.6 -27.2ZM211.8 -12.7Q215.5 -12.7 221.6 -17.7Q227.7 -22.7 229.2 -30.4Q229.3 -31.5 230.7 -31.6Q230.5 -36.9 229 -36.9Q225.3 -36.9 220.8 -32.1Q216.2 -27.3 213.3 -21.9Q210.4 -16.5 210.4 -13.9Q210.4 -13.2 210.6 -12.9Q210.9 -12.7 211.8 -12.7Z"/></g>
  <path d="M184,170 C248,165 332,175 404,168 C420,166.5 430,167.5 436,171" fill="none" stroke="#C85A3D" stroke-width="2.6" stroke-linecap="round" opacity="0.9"/>
  <text x="188" y="196" font-family="Georgia, 'Times New Roman', serif" font-style="italic" font-size="30" fill="#CBB48D">your AI keeps a diary you can read</text>
</svg>